<svg>
<svg id="editIcon" width="14" height="14" viewBox="0 0 14 14" fill="none" xmlns="http://www.w3.org/2000/svg">
<g clip-path="url(#clip0_34_6548)">
<path d="M10.5001 5.83343L8.16672 3.5001M1.45837 12.5418L3.43259 12.3224C3.67379 12.2956 3.79439 12.2822 3.90712 12.2457C4.00713 12.2133 4.1023 12.1676 4.19006 12.1097C4.28897 12.0445 4.37478 11.9587 4.54638 11.7871L12.2501 4.08343C12.8944 3.4391 12.8944 2.39443 12.2501 1.75009C11.6057 1.10576 10.5611 1.10576 9.91672 1.75009L2.21305 9.45375C2.04144 9.62536 1.95564 9.71116 1.89041 9.81008C1.83254 9.89783 1.7868 9.99301 1.75442 10.093C1.71793 10.2057 1.70453 10.3263 1.67773 10.5675L1.45837 12.5418Z" stroke="white" stroke-opacity="0.6" stroke-width="1.2" stroke-linecap="round" stroke-linejoin="round"/>
</g>
<defs>
<clipPath id="clip0_34_6548">
<rect width="14" height="14" fill="white"/>
</clipPath>
</defs>
</svg>
<svg id="addIcon" width="20" height="20" viewBox="0 0 20 20" fill="none" xmlns="http://www.w3.org/2000/svg">
<path d="M10 0V20" stroke="white" stroke-width="2"/>
<path d="M0 10L20 10" stroke="white" stroke-width="2"/>
</svg>
</svg>