<svg xmlns="http://www.w3.org/2000/svg" aria-hidden="true" style="position:absolute;width:0;height:0;overflow:hidden">
  <defs>
    <symbol id="plus" viewBox="0 0 32 32">
      <path fill="none" stroke="#fff" stroke-width="3.2" d="M16 0v32M0 16h32" style="stroke:var(--color1, #fff)" />
    </symbol>
    <symbol id="exit" viewBox="0 0 32 32">
      <path fill="#fff"
        d="M20.051 23.237h2.499v4.997a3.752 3.752 0 0 1-3.748 3.748H3.748A3.752 3.752 0 0 1 0 28.234V3.748A3.752 3.752 0 0 1 3.748 0h15.054a3.752 3.752 0 0 1 3.748 3.748v4.997h-2.499V3.748a1.25 1.25 0 0 0-1.249-1.249H3.748a1.25 1.25 0 0 0-1.249 1.249v24.486a1.25 1.25 0 0 0 1.249 1.249h15.054a1.25 1.25 0 0 0 1.249-1.249v-4.997zm6.06-13.135-1.767 1.767 2.873 2.874H11.056v2.499h16.161l-2.873 2.873 1.767 1.767L32 15.993l-5.889-5.89z"
        opacity=".6" style="fill:var(--color1, #fff)" />
    </symbol>
    <symbol id="user" viewBox="0 0 32 32">
      <path fill="#fff"
        d="M16 20c-4.227 0-7.986 2.041-10.379 5.208-.515.682-.773 1.022-.764 1.483.006.356.23.805.51 1.025.362.284.865.284 1.869.284h17.527c1.005 0 1.507 0 1.869-.284.28-.22.503-.669.51-1.025.008-.461-.249-.801-.764-1.483C23.985 22.041 20.226 20 15.999 20zM16 16a6 6 0 1 0 0-12 6 6 0 0 0 0 12z"
        opacity=".4" style="fill:var(--color1, #fff)" />
    </symbol>
    <symbol id="lock" viewBox="0 0 32 32">
      <path fill="#fff"
        d="M25.143 10.667h-1.524V7.619C23.619 3.413 20.206 0 16 0S8.381 3.413 8.381 7.619v3.048H6.857a3.057 3.057 0 0 0-3.048 3.048v15.238a3.057 3.057 0 0 0 3.048 3.048h18.286a3.057 3.057 0 0 0 3.048-3.048V13.715a3.057 3.057 0 0 0-3.048-3.048zM16 24.381c-1.676 0-3.048-1.371-3.048-3.048s1.371-3.048 3.048-3.048c1.676 0 3.048 1.371 3.048 3.048S17.677 24.381 16 24.381zm4.724-13.714h-9.448V7.619c0-2.606 2.118-4.724 4.724-4.724s4.724 2.118 4.724 4.724v3.048z"
        opacity=".4" style="fill:var(--color1, #fff)" />
    </symbol>
    <symbol id="email" viewBox="0 0 32 32">
      <path fill="#fff"
        d="M28.8 3.2H3.2C1.44 3.2.016 4.64.016 6.4L0 25.6c0 1.76 1.44 3.2 3.2 3.2h25.6c1.76 0 3.2-1.44 3.2-3.2V6.4c0-1.76-1.44-3.2-3.2-3.2zm0 6.4-12.8 8-12.8-8V6.4l12.8 8 12.8-8v3.2z"
        opacity=".4" style="fill:var(--color1, #fff)" />
    </symbol>
    <symbol id="logo_money_guard" viewBox="0 0 32 32">
      <path fill="#ffc727"
        d="M21.825 4.308c-2.219-.555-4.438-1.664-6.102-3.328-1.664 1.664-3.883 2.774-6.102 3.328.555 4.993 2.219 8.321 6.102 11.095 3.883-2.774 6.102-6.102 6.102-11.095z"
        style="fill:var(--color2, #ffc727)" />
      <path fill="#fbfbfb"
        d="M19.606 24.963 4.073 6.656v8.876l12.204 13.869 3.328-4.438zM21.27 23.299l6.657-7.766V7.212l-10.54 12.204 3.883 3.883zM21.825 26.073v4.993l6.102-7.212v-4.993l-6.102 7.212zM10.175 26.073l-6.102-7.212v4.993l6.102 7.212v-4.993z"
        style="fill:var(--color3, #fbfbfb)" />
    </symbol>
    <symbol id="close_icon" viewBox="0 0 32 32">
      <path fill="none" stroke="#fbfbfb" stroke-width="1.778" d="m1.778 1.778 28.444 28.444M1.778 30.222 30.222 1.778"
        style="stroke:var(--color3, #fbfbfb)" />
    </symbol>
    <symbol id="straight_line" viewBox="0 0 32 32">
      <path fill="none" stroke="#fff" stroke-width="1.067" d="M16 0v32" style="stroke:var(--color1, #fff)" />
    </symbol>
    <symbol id="arrow_up" viewBox="0 0 32 32">
      <path fill="none" stroke="#fbfbfb" stroke-width="1.6" d="M30.4 23.2 16 8.8 1.6 23.2" />
    </symbol>
    <symbol id="minus" viewBox="0 0 32 32">
      <path fill="none" stroke="#fff" stroke-width="3.2" d="M0 16h32" style="stroke:var(--color1, #fff)" />
    </symbol>
    <symbol id="arrow_down" viewBox="0 0 32 32">
      <path fill="none" stroke="#fbfbfb" stroke-width="1.6" d="M1.6 8.8 16 23.2 30.4 8.8" />
    </symbol>
    <symbol id="slash" viewBox="0 0 32 32">
      <path fill="none" stroke="#fff" stroke-width="2.909" d="M21.529 1.597 10.471 30.403"
        style="stroke:var(--color1, #fff)" />
    </symbol>
    <symbol id="calendar" viewBox="0 0 32 32">
      <path fill="#734aef"
        d="M11.2 14.4H8v3.2h3.2v-3.2zm6.4 0h-3.2v3.2h3.2v-3.2zm6.4 0h-3.2v3.2H24v-3.2zm3.2-11.2h-1.6V0h-3.2v3.2H9.6V0H6.4v3.2H4.8a3.185 3.185 0 0 0-3.184 3.2L1.6 28.8A3.2 3.2 0 0 0 4.8 32h22.4c1.76 0 3.2-1.44 3.2-3.2V6.4c0-1.76-1.44-3.2-3.2-3.2zm0 25.6H4.8V11.2h22.4v17.6z"
        style="fill:var(--color4, #734aef)" />
    </symbol>
    <symbol id="edit" viewBox="0 0 32 32">
      <path fill="none" stroke="black" stroke-linecap="round" stroke-linejoin="round" stroke-width="2.743"
        d="m24 13.334-5.333-5.333M3.333 28.667l4.513-.502c.551-.061.827-.092 1.085-.175.229-.074.446-.178.647-.311.226-.149.422-.345.814-.737L28 9.334a3.77 3.77 0 1 0-5.333-5.333L5.059 21.609c-.392.392-.588.588-.737.814a2.68 2.68 0 0 0-.311.647c-.083.258-.114.533-.175 1.085l-.501 4.513z"
        style="stroke:var(--color1, rgba(255, 255, 255, 0.6) )" />
    </symbol>
    <symbol id="dollar" viewBox="0 0 32 32">
      <path
        d="M5.053 0A5.053 5.053 0 0 0 0 5.053v21.895a5.053 5.053 0 0 0 5.053 5.053h21.895a5.053 5.053 0 0 0 5.053-5.053V5.053A5.053 5.053 0 0 0 26.948 0H5.053zm8.212 13.136c0 .995.765 1.635 3.144 2.253s4.925 1.635 4.925 4.61c0 2.148-1.624 3.332-3.667 3.72v2.253h-3.143v-2.274c-2.012-.43-3.73-1.718-3.856-4.013h2.305c.115 1.236.964 2.2 3.123 2.2 2.316 0 2.829-1.153 2.829-1.876 0-.974-.524-1.896-3.143-2.525-2.923-.702-4.925-1.907-4.925-4.327 0-2.022 1.635-3.342 3.667-3.783V7.111h3.143v2.295c2.19.534 3.29 2.19 3.363 3.992h-2.316c-.063-1.31-.754-2.2-2.619-2.2-1.771 0-2.829.796-2.829 1.938z"
        opacity=".4" />
    </symbol>
    <symbol id="statistics" viewBox="0 0 32 32">
      <path
        d="M5.053 0h21.895a5.053 5.053 0 0 1 5.053 5.053v21.895a5.053 5.053 0 0 1-5.053 5.053H5.053A5.053 5.053 0 0 1 0 26.948V5.053A5.053 5.053 0 0 1 5.053 0zm19.789 13.941c1.081 0 1.965-.926 1.965-2.058s-.884-2.059-1.965-2.059-1.965.926-1.965 2.059c0 .185.02.36.069.525l-3.488 3.664c-.157-.051-.334-.072-.511-.072s-.354.021-.511.072l-2.505-2.624c.049-.165.069-.35.069-.535 0-1.132-.884-2.058-1.965-2.058s-1.965.926-1.965 2.058c0 .185.02.371.069.535l-4.48 4.683a1.61 1.61 0 0 0-.501-.072c-1.081 0-1.965.926-1.965 2.059s.884 2.058 1.965 2.058 1.965-.926 1.965-2.058c0-.185-.02-.36-.069-.525l4.47-4.693c.157.051.334.072.511.072s.354-.021.511-.072l2.505 2.625c-.049.165-.069.35-.069.535 0 1.132.884 2.059 1.965 2.059s1.965-.926 1.965-2.059a1.9 1.9 0 0 0-.069-.535l3.498-3.654c.157.051.324.072.501.072z"
        opacity=".4" />
    </symbol>
    <symbol id="homepage" viewBox="0 0 32 32">
      <path
        d="M5.053 0A5.053 5.053 0 0 0 0 5.053v21.895a5.053 5.053 0 0 0 5.053 5.053h21.895a5.053 5.053 0 0 0 5.053-5.053V5.053A5.053 5.053 0 0 0 26.948 0H5.053zm8.365 17.987v6.902H7.664v-9.203H4.211L15.72 5.333l11.509 10.353h-3.453v9.203h-5.754v-6.902h-4.604z"
        opacity=".4" />
    </symbol>

  </defs>

</svg>